<svg width="131" height="131" viewBox="0 0 131 131" fill="none" xmlns="http://www.w3.org/2000/svg">
<g filter="url(#filter0_ddi_125_215)">
<path d="M50.1818 25.7734C52.1529 23.8022 55.3488 23.8022 57.32 25.7734C59.2912 27.7445 59.2912 30.9404 57.32 32.9116L49.266 40.9656C48.945 41.2865 48.945 41.8069 49.266 42.1279L57.32 50.1819C59.2912 52.153 59.2912 55.3489 57.32 57.3201C55.3488 59.2912 52.1529 59.2912 50.1818 57.3201L42.1278 49.2661C41.8068 48.9451 41.2864 48.9451 40.9655 49.2661L32.9115 57.3201C30.9403 59.2912 27.7444 59.2912 25.7733 57.3201C23.8021 55.3489 23.8021 52.153 25.7733 50.1819L33.8273 42.1279C34.1482 41.8069 34.1482 41.2865 33.8273 40.9656L25.7733 32.9116C23.8021 30.9404 23.8021 27.7445 25.7733 25.7734C27.7444 23.8022 30.9403 23.8022 32.9115 25.7734L40.9655 33.8274C41.2864 34.1483 41.8068 34.1483 42.1278 33.8274L50.1818 25.7734Z" fill="#686868"/>
</g>
<defs>
<filter id="filter0_ddi_125_215" x="0.294922" y="0.295044" width="130.503" height="130.503" filterUnits="userSpaceOnUse" color-interpolation-filters="sRGB">
<feFlood flood-opacity="0" result="BackgroundImageFix"/>
<feColorMatrix in="SourceAlpha" type="matrix" values="0 0 0 0 0 0 0 0 0 0 0 0 0 0 0 0 0 0 127 0" result="hardAlpha"/>
<feOffset dx="24" dy="24"/>
<feGaussianBlur stdDeviation="24"/>
<feComposite in2="hardAlpha" operator="out"/>
<feColorMatrix type="matrix" values="0 0 0 0 0 0 0 0 0 0 0 0 0 0 0 0 0 0 0.25 0"/>
<feBlend mode="normal" in2="BackgroundImageFix" result="effect1_dropShadow_125_215"/>
<feColorMatrix in="SourceAlpha" type="matrix" values="0 0 0 0 0 0 0 0 0 0 0 0 0 0 0 0 0 0 127 0" result="hardAlpha"/>
<feOffset dx="12" dy="8"/>
<feGaussianBlur stdDeviation="8"/>
<feComposite in2="hardAlpha" operator="out"/>
<feColorMatrix type="matrix" values="0 0 0 0 0 0 0 0 0 0 0 0 0 0 0 0 0 0 0.25 0"/>
<feBlend mode="normal" in2="effect1_dropShadow_125_215" result="effect2_dropShadow_125_215"/>
<feBlend mode="normal" in="SourceGraphic" in2="effect2_dropShadow_125_215" result="shape"/>
<feColorMatrix in="SourceAlpha" type="matrix" values="0 0 0 0 0 0 0 0 0 0 0 0 0 0 0 0 0 0 127 0" result="hardAlpha"/>
<feOffset dx="-12" dy="-8"/>
<feGaussianBlur stdDeviation="8"/>
<feComposite in2="hardAlpha" operator="arithmetic" k2="-1" k3="1"/>
<feColorMatrix type="matrix" values="0 0 0 0 0 0 0 0 0 0 0 0 0 0 0 0 0 0 0.25 0"/>
<feBlend mode="normal" in2="shape" result="effect3_innerShadow_125_215"/>
</filter>
</defs>
</svg>
