<svg width="20" height="21" viewBox="0 0 20 21" fill="none" xmlns="http://www.w3.org/2000/svg">
<path fill-rule="evenodd" clip-rule="evenodd" d="M9.28654 0C8.3419 0 7.53027 0.650434 7.35254 1.54997L7.27354 1.94997C6.9629 3.52221 5.28554 4.46112 3.72581 3.93583L3.32881 3.80213C2.43645 3.5016 1.44963 3.85781 0.977356 4.65097L0.263901 5.84898C-0.208464 6.64216 -0.0331917 7.64879 0.681446 8.24776L0.999264 8.51415C2.24845 9.5611 2.24845 11.4389 0.999264 12.4858L0.681446 12.7522C-0.0331917 13.3512 -0.208464 14.3578 0.263901 15.151L0.977266 16.349C1.44963 17.1422 2.43645 17.4984 3.3289 17.1978L3.72572 17.0641C5.28554 16.5387 6.9629 17.4776 7.27354 19.05L7.35254 19.45C7.53027 20.3495 8.3419 21 9.28654 21H10.7135C11.6581 21 12.4697 20.3495 12.6474 19.4501L12.7265 19.0498C13.0372 17.4776 14.7146 16.5387 16.2743 17.0641L16.6711 17.1977C17.5635 17.4984 18.5503 17.1421 19.0227 16.3489L19.7361 15.151C20.2084 14.3578 20.0332 13.3512 19.3186 12.7522L19.0007 12.4858C17.7516 11.4388 17.7516 9.5611 19.0007 8.51419L19.3186 8.24777C20.0332 7.64879 20.2084 6.64217 19.7361 5.84901L19.0227 4.65099C18.5503 3.85782 17.5635 3.50161 16.6711 3.80216L16.2743 3.93582C14.7145 4.46112 13.0372 3.52228 12.7265 1.95007L12.6475 1.5499C12.4697 0.650398 11.6582 0 10.7135 0H9.28654ZM10 13.5C8.34318 13.5 6.99999 12.1568 6.99999 10.5C6.99999 8.8431 8.34318 7.49999 10 7.49999C11.6569 7.49999 13 8.8431 13 10.5C13 12.1568 11.6569 13.5 10 13.5Z" fill="#686868"/>
</svg>
