<svg width="45" height="45" viewBox="0 0 45 45" fill="none" xmlns="http://www.w3.org/2000/svg">
<g filter="url(#filter0_i_125_216)">
<path d="M39.5667 17.258C42.3541 17.258 44.6138 19.5176 44.6138 22.305C44.6138 25.0924 42.3541 27.352 39.5667 27.352L29.3558 27.352C28.2512 27.352 27.3558 28.2475 27.3558 29.352L27.3558 39.563C27.3558 42.3504 25.0962 44.61 22.3088 44.61C19.5214 44.61 17.2617 42.3504 17.2617 39.563L17.2617 29.352C17.2617 28.2475 16.3663 27.352 15.2617 27.352L5.05081 27.352C2.2634 27.352 0.00376782 25.0924 0.00376795 22.305C0.00376807 19.5176 2.26341 17.258 5.05081 17.258L15.2617 17.258C16.3663 17.258 17.2617 16.3625 17.2617 15.258L17.2617 5.04704C17.2617 2.25964 19.5214 -1.09682e-06 22.3088 -9.74983e-07C25.0962 -8.53141e-07 27.3558 2.25964 27.3558 5.04704L27.3558 15.258C27.3558 16.3625 28.2512 17.258 29.3558 17.258L39.5667 17.258Z" fill="white"/>
<path d="M39.5667 17.258C42.3541 17.258 44.6138 19.5176 44.6138 22.305C44.6138 25.0924 42.3541 27.352 39.5667 27.352L29.3558 27.352C28.2512 27.352 27.3558 28.2475 27.3558 29.352L27.3558 39.563C27.3558 42.3504 25.0962 44.61 22.3088 44.61C19.5214 44.61 17.2617 42.3504 17.2617 39.563L17.2617 29.352C17.2617 28.2475 16.3663 27.352 15.2617 27.352L5.05081 27.352C2.2634 27.352 0.00376782 25.0924 0.00376795 22.305C0.00376807 19.5176 2.26341 17.258 5.05081 17.258L15.2617 17.258C16.3663 17.258 17.2617 16.3625 17.2617 15.258L17.2617 5.04704C17.2617 2.25964 19.5214 -1.09682e-06 22.3088 -9.74983e-07C25.0962 -8.53141e-07 27.3558 2.25964 27.3558 5.04704L27.3558 15.258C27.3558 16.3625 28.2512 17.258 29.3558 17.258L39.5667 17.258Z" fill="white"/>
<path d="M39.5667 17.258C42.3541 17.258 44.6138 19.5176 44.6138 22.305C44.6138 25.0924 42.3541 27.352 39.5667 27.352L29.3558 27.352C28.2512 27.352 27.3558 28.2475 27.3558 29.352L27.3558 39.563C27.3558 42.3504 25.0962 44.61 22.3088 44.61C19.5214 44.61 17.2617 42.3504 17.2617 39.563L17.2617 29.352C17.2617 28.2475 16.3663 27.352 15.2617 27.352L5.05081 27.352C2.2634 27.352 0.00376782 25.0924 0.00376795 22.305C0.00376807 19.5176 2.26341 17.258 5.05081 17.258L15.2617 17.258C16.3663 17.258 17.2617 16.3625 17.2617 15.258L17.2617 5.04704C17.2617 2.25964 19.5214 -1.09682e-06 22.3088 -9.74983e-07C25.0962 -8.53141e-07 27.3558 2.25964 27.3558 5.04704L27.3558 15.258C27.3558 16.3625 28.2512 17.258 29.3558 17.258L39.5667 17.258Z" fill="white"/>
<path d="M39.5667 17.258C42.3541 17.258 44.6138 19.5176 44.6138 22.305C44.6138 25.0924 42.3541 27.352 39.5667 27.352L29.3558 27.352C28.2512 27.352 27.3558 28.2475 27.3558 29.352L27.3558 39.563C27.3558 42.3504 25.0962 44.61 22.3088 44.61C19.5214 44.61 17.2617 42.3504 17.2617 39.563L17.2617 29.352C17.2617 28.2475 16.3663 27.352 15.2617 27.352L5.05081 27.352C2.2634 27.352 0.00376782 25.0924 0.00376795 22.305C0.00376807 19.5176 2.26341 17.258 5.05081 17.258L15.2617 17.258C16.3663 17.258 17.2617 16.3625 17.2617 15.258L17.2617 5.04704C17.2617 2.25964 19.5214 -1.09682e-06 22.3088 -9.74983e-07C25.0962 -8.53141e-07 27.3558 2.25964 27.3558 5.04704L27.3558 15.258C27.3558 16.3625 28.2512 17.258 29.3558 17.258L39.5667 17.258Z" fill="white"/>
</g>
<defs>
<filter id="filter0_i_125_216" x="0.00375366" y="0" width="48.61" height="48.61" filterUnits="userSpaceOnUse" color-interpolation-filters="sRGB">
<feFlood flood-opacity="0" result="BackgroundImageFix"/>
<feBlend mode="normal" in="SourceGraphic" in2="BackgroundImageFix" result="shape"/>
<feColorMatrix in="SourceAlpha" type="matrix" values="0 0 0 0 0 0 0 0 0 0 0 0 0 0 0 0 0 0 127 0" result="hardAlpha"/>
<feOffset dx="4" dy="4"/>
<feGaussianBlur stdDeviation="2"/>
<feComposite in2="hardAlpha" operator="arithmetic" k2="-1" k3="1"/>
<feColorMatrix type="matrix" values="0 0 0 0 0 0 0 0 0 0 0 0 0 0 0 0 0 0 0.25 0"/>
<feBlend mode="normal" in2="shape" result="effect1_innerShadow_125_216"/>
</filter>
</defs>
</svg>
